Fri Aug 22 22:44:40 COT 2014
Parameter 1: ../../ImageProcessing/Execution/vocabulary.xml
Parameter 2: ../../www/output/images/ab1c6e2d52174d1476b61d21c0cfde6e/script.xml
Parameter 3: ../../www/output/images/ab1c6e2d52174d1476b61d21c0cfde6e/score.xml
Parameter 4: ../../ImageProcessing
Parameter 5: ../../www/output/images/ab1c6e2d52174d1476b61d21c0cfde6e/SoundFilm.log
Parameter 6: ../../SoundFilm/
Parameter 7: ../../SoundFilm/bin

ffmpeg version N-42091-gf7cba73 Copyright (c) 2000-2012 the FFmpeg developers
  built on Jul  1 2012 05:10:32 with gcc 4.6.3
  configuration: --prefix=/root/ffmpeg-static/32bit --arch=x86_32 --extra-cflags='-m32 -I/root/ffmpeg-static/32bit/include -static' --extra-ldflags='-m32 -L/root/ffmpeg-static/32bit/lib -static' --extra-libs='-lxml2 -lexpat -lfreetype' --enable-static --disable-shared --disable-ffserver --disable-doc --enable-bzlib --enable-zlib --enable-postproc --enable-runtime-cpudetect --enable-libx264 --enable-gpl --enable-libtheora --enable-libvorbis --enable-libmp3lame --enable-gray --enable-libass --enable-libfreetype --enable-libopenjpeg --enable-libspeex --enable-libvo-aacenc --enable-libvo-amrwbenc --enable-version3 --enable-libvpx
  libavutil      51. 63.100 / 51. 63.100
  libavcodec     54. 31.100 / 54. 31.100
  libavformat    54. 14.100 / 54. 14.100
  libavdevice    54.  0.100 / 54.  0.100
  libavfilter     3.  0.100 /  3.  0.100
  libswscale      2.  1.100 /  2.  1.100
  libswresample   0. 15.100 /  0. 15.100
  libpostproc    52.  0.100 / 52.  0.100
[wav @ 0x9670660] max_analyze_duration 5000000 reached at 5015510
Guessed Channel Layout for  Input Stream #0.0 : stereo
Input #0, wav, from '../../www/output/images/ab1c6e2d52174d1476b61d21c0cfde6e/tmpgarage.wav':
  Duration: 00:00:06.90, bitrate: 1411 kb/s
    Stream #0:0: Audio: pcm_s16le ([1][0][0][0] / 0x0001), 44100 Hz, stereo, s16, 1411 kb/s
[graph 0 input from stream 0:0 @ 0x96ca2c0] tb:1/44100 samplefmt:s16 samplerate:44100 chlayout:0x3
Output #0, mp3, to '../../www/output/images/ab1c6e2d52174d1476b61d21c0cfde6e/squirrel.wav.mp3':
  Metadata:
    TSSE            : Lavf54.14.100
    Stream #0:0: Audio: mp3, 44100 Hz, stereo, s16, 128 kb/s
Stream mapping:
  Stream #0:0 -> #0:0 (pcm_s16le -> libmp3lame)
Press [q] to stop, [?] for help
size=     105kB time=00:00:06.63 bitrate= 129.0kbits/s    size=     109kB time=00:00:06.92 bitrate= 129.0kbits/s    
video:0kB audio:109kB subtitle:0 global headers:0kB muxing overhead 0.406559%
Hello, SBI!
temporal = ../../www/output/images/ab1c6e2d52174d1476b61d21c0cfde6e/
el script es valido
el vocabulario es valido
listo para los objetos
el objeto que da es Rabbit
el objeto que da es Rabbit
listo para los actores
el actor que da es Squirrel
el objeto que da es Squirrel
el objeto que da es Squirrel
listo para los actores
el actor que da es Squirrel
el objeto que da es Squirrel
es fondo o voz
es el por defecto
el sonido por defecto del actor es SquirrelDefault
hola
you can do it
you can do it
you can do it
temporal string = ../../www/output/images/ab1c6e2d52174d1476b61d21c0cfde6e/
copiando ../squirrel.wav en ../../www/output/images/ab1c6e2d52174d1476b61d21c0cfde6e/tmp_1.wav
copiando ../squirrel.wav en ../../www/output/images/ab1c6e2d52174d1476b61d21c0cfde6e/tmp_2.wav
copiando ../squirrel.wav en ../../www/output/images/ab1c6e2d52174d1476b61d21c0cfde6e/tmp_3.wav
copiando ../squirrel.wav en ../../www/output/images/ab1c6e2d52174d1476b61d21c0cfde6e/tmp_4.wav
copiando ../squirrel.wav en ../../www/output/images/ab1c6e2d52174d1476b61d21c0cfde6e/tmp_5.wav
../ffmpeg -y -i ../../www/output/images/ab1c6e2d52174d1476b61d21c0cfde6e/tmpgarage.wav -ab 128k -ar 44100 ../../www/output/images/ab1c6e2d52174d1476b61d21c0cfde6e/squirrel.wav.mp3   tu
el actor es ::Squirrel::
la animacion del actor es ::THRGW::
la de la acciones ::CLAP::
el actor es ::Squirrel::
la animacion del actor es ::THRGW::
la de la acciones ::FLAP::
el objeto que da es Chinchilla
el objeto que da es Chinchilla
listo para los actores
el actor que da es Squirrel
el objeto que da es Butterfly
el objeto que da es Butterfly
listo para los actores
el actor que da es Squirrel
el objeto que da es Bird
el objeto que da es Bird
listo para los actores
el actor que da es Squirrel
el objeto que da es FlyingSquirrel
el objeto que da es FlyingSquirrel
listo para los actores
el actor que da es Squirrel
el objeto que da es Apple
el objeto que da es Apple
listo para los actores
el actor que da es Squirrel
el objeto que da es SBCamera
el objeto que da es SBCamera
listo para los actores
el actor que da es Squirrel
el objeto que da es SBRectangle
el objeto que da es SBRectangle
listo para los actores
el actor que da es Squirrel
sayonara, SBI!

Fri Aug 22 22:44:41 COT 2014
